<?xml version="1.0" standalone="no"?>
<svg viewBox="0 0 200 200" xmlns="http://www.w3.org/2000/svg">
  <path fill="#3C79F5" d="M26.6,-53.1C34.7,-41.4,41.5,-34.7,53.4,-26.7C65.2,-18.6,82,-9.3,85.1,1.8C88.2,12.9,77.6,25.8,69.1,39.7C60.7,53.6,54.5,68.6,43.3,68.8C32.2,69,16.1,54.4,4.3,47C-7.4,39.5,-14.9,39.1,-24.1,37.8C-33.3,36.4,-44.3,34.2,-47.7,27.7C-51.1,21.3,-47,10.6,-43.8,1.8C-40.7,-7,-38.6,-14,-36.1,-22.1C-33.7,-30.3,-30.9,-39.5,-24.8,-52.3C-18.8,-65.1,-9.4,-81.4,-0.1,-81.3C9.3,-81.2,18.5,-64.7,26.6,-53.1Z" transform="translate(100 100)" />
</svg>
